<svg xmlns="http://www.w3.org/2000/svg" width="800" height="500" viewBox="0 0 800 500">
  <rect width="800" height="500" fill="#0a1120"/>
  <pattern id="g113" width="40" height="40" patternUnits="userSpaceOnUse">
    <path d="M 40 0 L 0 0 0 40" fill="none" stroke="#00e5ff" opacity="0.05" stroke-width="0.5"/>
  </pattern>
  <rect width="800" height="500" fill="url(#g113)"/>
  <line x1="113" y1="113" x2="413" y2="313" stroke="#00e5ff" opacity="0.07" stroke-width="0.8"/>
  <line x1="250" y1="202" x2="624" y2="486" stroke="#00e5ff" opacity="0.07" stroke-width="0.8"/>
  <line x1="387" y1="291" x2="35" y2="159" stroke="#00e5ff" opacity="0.07" stroke-width="0.8"/>
  <line x1="524" y1="380" x2="246" y2="332" stroke="#00e5ff" opacity="0.07" stroke-width="0.8"/>
  <line x1="661" y1="469" x2="457" y2="5" stroke="#00e5ff" opacity="0.07" stroke-width="0.8"/>
  <line x1="798" y1="58" x2="668" y2="178" stroke="#00e5ff" opacity="0.07" stroke-width="0.8"/>
  <line x1="135" y1="147" x2="79" y2="351" stroke="#00e5ff" opacity="0.07" stroke-width="0.8"/>
  <line x1="272" y1="236" x2="290" y2="24" stroke="#00e5ff" opacity="0.07" stroke-width="0.8"/>
  <circle cx="263" cy="213" r="3" fill="#00e5ff" opacity="0.2"/>
  <circle cx="514" cy="380" r="4" fill="#00e5ff" opacity="0.2"/>
  <circle cx="65" cy="147" r="5" fill="#00e5ff" opacity="0.2"/>
  <circle cx="316" cy="314" r="3" fill="#00e5ff" opacity="0.2"/>
  <circle cx="567" cy="81" r="4" fill="#00e5ff" opacity="0.2"/>
  <circle cx="118" cy="248" r="5" fill="#00e5ff" opacity="0.2"/>
  <text x="400" y="250" text-anchor="middle" font-family="monospace" font-size="14" fill="#00e5ff" opacity="0.25">PREDICTIVE MAINTENANCE</text>
</svg>