<svg xmlns="http://www.w3.org/2000/svg" width="800" height="500" viewBox="0 0 800 500">
  <rect width="800" height="500" fill="#0a1120"/>
  <pattern id="g300" width="40" height="40" patternUnits="userSpaceOnUse">
    <path d="M 40 0 L 0 0 0 40" fill="none" stroke="#ff6b35" opacity="0.05" stroke-width="0.5"/>
  </pattern>
  <rect width="800" height="500" fill="url(#g300)"/>
  <line x1="300" y1="300" x2="600" y2="0" stroke="#ff6b35" opacity="0.07" stroke-width="0.8"/>
  <line x1="437" y1="389" x2="11" y2="173" stroke="#ff6b35" opacity="0.07" stroke-width="0.8"/>
  <line x1="574" y1="478" x2="222" y2="346" stroke="#ff6b35" opacity="0.07" stroke-width="0.8"/>
  <line x1="711" y1="67" x2="433" y2="19" stroke="#ff6b35" opacity="0.07" stroke-width="0.8"/>
  <line x1="48" y1="156" x2="644" y2="192" stroke="#ff6b35" opacity="0.07" stroke-width="0.8"/>
  <line x1="185" y1="245" x2="55" y2="365" stroke="#ff6b35" opacity="0.07" stroke-width="0.8"/>
  <line x1="322" y1="334" x2="266" y2="38" stroke="#ff6b35" opacity="0.07" stroke-width="0.8"/>
  <line x1="459" y1="423" x2="477" y2="211" stroke="#ff6b35" opacity="0.07" stroke-width="0.8"/>
  <circle cx="450" cy="400" r="3" fill="#ff6b35" opacity="0.2"/>
  <circle cx="701" cy="167" r="4" fill="#ff6b35" opacity="0.2"/>
  <circle cx="252" cy="334" r="5" fill="#ff6b35" opacity="0.2"/>
  <circle cx="503" cy="101" r="3" fill="#ff6b35" opacity="0.2"/>
  <circle cx="54" cy="268" r="4" fill="#ff6b35" opacity="0.2"/>
  <circle cx="305" cy="435" r="5" fill="#ff6b35" opacity="0.2"/>
  <text x="400" y="250" text-anchor="middle" font-family="monospace" font-size="14" fill="#ff6b35" opacity="0.25">CEMENT // MAINTENANCE</text>
</svg>