<svg xmlns="http://www.w3.org/2000/svg" width="800" height="500" viewBox="0 0 800 500">
  <rect width="800" height="500" fill="#0a1120"/>
  <pattern id="g360" width="40" height="40" patternUnits="userSpaceOnUse">
    <path d="M 40 0 L 0 0 0 40" fill="none" stroke="#00e5ff" opacity="0.05" stroke-width="0.5"/>
  </pattern>
  <rect width="800" height="500" fill="url(#g360)"/>
  <line x1="360" y1="360" x2="660" y2="60" stroke="#00e5ff" opacity="0.07" stroke-width="0.8"/>
  <line x1="497" y1="449" x2="71" y2="233" stroke="#00e5ff" opacity="0.07" stroke-width="0.8"/>
  <line x1="634" y1="38" x2="282" y2="406" stroke="#00e5ff" opacity="0.07" stroke-width="0.8"/>
  <line x1="771" y1="127" x2="493" y2="79" stroke="#00e5ff" opacity="0.07" stroke-width="0.8"/>
  <line x1="108" y1="216" x2="704" y2="252" stroke="#00e5ff" opacity="0.07" stroke-width="0.8"/>
  <line x1="245" y1="305" x2="115" y2="425" stroke="#00e5ff" opacity="0.07" stroke-width="0.8"/>
  <line x1="382" y1="394" x2="326" y2="98" stroke="#00e5ff" opacity="0.07" stroke-width="0.8"/>
  <line x1="519" y1="483" x2="537" y2="271" stroke="#00e5ff" opacity="0.07" stroke-width="0.8"/>
  <circle cx="510" cy="60" r="3" fill="#00e5ff" opacity="0.2"/>
  <circle cx="61" cy="227" r="4" fill="#00e5ff" opacity="0.2"/>
  <circle cx="312" cy="394" r="5" fill="#00e5ff" opacity="0.2"/>
  <circle cx="563" cy="161" r="3" fill="#00e5ff" opacity="0.2"/>
  <circle cx="114" cy="328" r="4" fill="#00e5ff" opacity="0.2"/>
  <circle cx="365" cy="95" r="5" fill="#00e5ff" opacity="0.2"/>
  <text x="400" y="250" text-anchor="middle" font-family="monospace" font-size="14" fill="#00e5ff" opacity="0.25">DETAIL 01</text>
</svg>