<svg xmlns="http://www.w3.org/2000/svg" width="800" height="500" viewBox="0 0 800 500">
  <rect width="800" height="500" fill="#0a1120"/>
  <pattern id="g370" width="40" height="40" patternUnits="userSpaceOnUse">
    <path d="M 40 0 L 0 0 0 40" fill="none" stroke="#00e5ff" opacity="0.05" stroke-width="0.5"/>
  </pattern>
  <rect width="800" height="500" fill="url(#g370)"/>
  <line x1="370" y1="370" x2="670" y2="70" stroke="#00e5ff" opacity="0.07" stroke-width="0.8"/>
  <line x1="507" y1="459" x2="81" y2="243" stroke="#00e5ff" opacity="0.07" stroke-width="0.8"/>
  <line x1="644" y1="48" x2="292" y2="416" stroke="#00e5ff" opacity="0.07" stroke-width="0.8"/>
  <line x1="781" y1="137" x2="503" y2="89" stroke="#00e5ff" opacity="0.07" stroke-width="0.8"/>
  <line x1="118" y1="226" x2="714" y2="262" stroke="#00e5ff" opacity="0.07" stroke-width="0.8"/>
  <line x1="255" y1="315" x2="125" y2="435" stroke="#00e5ff" opacity="0.07" stroke-width="0.8"/>
  <line x1="392" y1="404" x2="336" y2="108" stroke="#00e5ff" opacity="0.07" stroke-width="0.8"/>
  <line x1="529" y1="493" x2="547" y2="281" stroke="#00e5ff" opacity="0.07" stroke-width="0.8"/>
  <circle cx="520" cy="70" r="3" fill="#00e5ff" opacity="0.2"/>
  <circle cx="71" cy="237" r="4" fill="#00e5ff" opacity="0.2"/>
  <circle cx="322" cy="404" r="5" fill="#00e5ff" opacity="0.2"/>
  <circle cx="573" cy="171" r="3" fill="#00e5ff" opacity="0.2"/>
  <circle cx="124" cy="338" r="4" fill="#00e5ff" opacity="0.2"/>
  <circle cx="375" cy="105" r="5" fill="#00e5ff" opacity="0.2"/>
  <text x="400" y="250" text-anchor="middle" font-family="monospace" font-size="14" fill="#00e5ff" opacity="0.25">DETAIL 02</text>
</svg>