<svg xmlns="http://www.w3.org/2000/svg" width="800" height="500" viewBox="0 0 800 500">
  <rect width="800" height="500" fill="#0a1120"/>
  <pattern id="g340" width="40" height="40" patternUnits="userSpaceOnUse">
    <path d="M 40 0 L 0 0 0 40" fill="none" stroke="#00e5ff" opacity="0.05" stroke-width="0.5"/>
  </pattern>
  <rect width="800" height="500" fill="url(#g340)"/>
  <line x1="340" y1="340" x2="640" y2="40" stroke="#00e5ff" opacity="0.07" stroke-width="0.8"/>
  <line x1="477" y1="429" x2="51" y2="213" stroke="#00e5ff" opacity="0.07" stroke-width="0.8"/>
  <line x1="614" y1="18" x2="262" y2="386" stroke="#00e5ff" opacity="0.07" stroke-width="0.8"/>
  <line x1="751" y1="107" x2="473" y2="59" stroke="#00e5ff" opacity="0.07" stroke-width="0.8"/>
  <line x1="88" y1="196" x2="684" y2="232" stroke="#00e5ff" opacity="0.07" stroke-width="0.8"/>
  <line x1="225" y1="285" x2="95" y2="405" stroke="#00e5ff" opacity="0.07" stroke-width="0.8"/>
  <line x1="362" y1="374" x2="306" y2="78" stroke="#00e5ff" opacity="0.07" stroke-width="0.8"/>
  <line x1="499" y1="463" x2="517" y2="251" stroke="#00e5ff" opacity="0.07" stroke-width="0.8"/>
  <circle cx="490" cy="440" r="3" fill="#00e5ff" opacity="0.2"/>
  <circle cx="741" cy="207" r="4" fill="#00e5ff" opacity="0.2"/>
  <circle cx="292" cy="374" r="5" fill="#00e5ff" opacity="0.2"/>
  <circle cx="543" cy="141" r="3" fill="#00e5ff" opacity="0.2"/>
  <circle cx="94" cy="308" r="4" fill="#00e5ff" opacity="0.2"/>
  <circle cx="345" cy="75" r="5" fill="#00e5ff" opacity="0.2"/>
  <text x="400" y="250" text-anchor="middle" font-family="monospace" font-size="14" fill="#00e5ff" opacity="0.25">DETAIL 01</text>
</svg>