<svg xmlns="http://www.w3.org/2000/svg" width="800" height="500" viewBox="0 0 800 500">
  <rect width="800" height="500" fill="#0a1120"/>
  <pattern id="g320" width="40" height="40" patternUnits="userSpaceOnUse">
    <path d="M 40 0 L 0 0 0 40" fill="none" stroke="#00e5ff" opacity="0.05" stroke-width="0.5"/>
  </pattern>
  <rect width="800" height="500" fill="url(#g320)"/>
  <line x1="320" y1="320" x2="620" y2="20" stroke="#00e5ff" opacity="0.07" stroke-width="0.8"/>
  <line x1="457" y1="409" x2="31" y2="193" stroke="#00e5ff" opacity="0.07" stroke-width="0.8"/>
  <line x1="594" y1="498" x2="242" y2="366" stroke="#00e5ff" opacity="0.07" stroke-width="0.8"/>
  <line x1="731" y1="87" x2="453" y2="39" stroke="#00e5ff" opacity="0.07" stroke-width="0.8"/>
  <line x1="68" y1="176" x2="664" y2="212" stroke="#00e5ff" opacity="0.07" stroke-width="0.8"/>
  <line x1="205" y1="265" x2="75" y2="385" stroke="#00e5ff" opacity="0.07" stroke-width="0.8"/>
  <line x1="342" y1="354" x2="286" y2="58" stroke="#00e5ff" opacity="0.07" stroke-width="0.8"/>
  <line x1="479" y1="443" x2="497" y2="231" stroke="#00e5ff" opacity="0.07" stroke-width="0.8"/>
  <circle cx="470" cy="420" r="3" fill="#00e5ff" opacity="0.2"/>
  <circle cx="721" cy="187" r="4" fill="#00e5ff" opacity="0.2"/>
  <circle cx="272" cy="354" r="5" fill="#00e5ff" opacity="0.2"/>
  <circle cx="523" cy="121" r="3" fill="#00e5ff" opacity="0.2"/>
  <circle cx="74" cy="288" r="4" fill="#00e5ff" opacity="0.2"/>
  <circle cx="325" cy="55" r="5" fill="#00e5ff" opacity="0.2"/>
  <text x="400" y="250" text-anchor="middle" font-family="monospace" font-size="14" fill="#00e5ff" opacity="0.25">DETAIL 02</text>
</svg>